<svg xmlns="http://www.w3.org/2000/svg" width="512" height="512" viewBox="0 0 512 512" version="1.1">
	<path d="M 200.763 1.565 C 195.421 4.463, 194.719 7.563, 195.129 26.434 L 195.500 43.500 191.500 43.777 C 182.881 44.374, 157.936 48.213, 147.346 50.572 C 109.193 59.072, 82.156 74.915, 80.341 89.835 C 79.797 94.307, 82.713 99.490, 86.748 101.223 C 88.261 101.873, 89.685 102.536, 89.911 102.696 C 90.137 102.857, 85.838 107.603, 80.358 113.244 C 43.521 151.165, 22.027 196.039, 16.051 247.500 C 14.520 260.685, 14.767 288.117, 16.538 301.630 C 25.270 368.241, 62.226 426.798, 119 463.980 C 139.078 477.130, 168.749 489.615, 192.500 494.908 C 197.450 496.011, 207.026 498.733, 213.781 500.957 C 272.213 520.197, 335.600 513.869, 388.500 483.516 C 419.514 465.722, 449.405 436.139, 467.750 405.084 C 506.652 339.229, 506.656 253.864, 467.759 187.881 C 458.675 172.472, 447.713 158.576, 431.957 142.500 C 423.872 134.250, 415.342 125.362, 413.001 122.750 L 408.745 118 423.576 118 L 438.406 118 434.453 113.878 C 429.724 108.948, 422.589 104.258, 414.760 100.936 C 410.554 99.151, 409.180 98.099, 409.620 97 C 409.951 96.175, 410.441 93.700, 410.710 91.500 C 411.122 88.135, 410.655 86.706, 407.768 82.500 C 397.160 67.047, 370.666 55.143, 330.500 47.783 L 323.500 46.500 323.814 43.250 L 324.128 40 309.450 40 L 294.773 40 295.381 35.750 C 295.716 33.413, 296.053 26.290, 296.130 19.922 C 296.286 7.127, 295.316 4.249, 289.901 1.449 C 285.695 -0.726, 204.791 -0.620, 200.763 1.565 M 219.815 35.139 L 220.130 46.282 227.716 45.641 C 231.888 45.289, 237.983 45, 241.259 45 C 247.115 45, 247.206 44.957, 246.589 42.500 L 245.962 40 258.481 40 L 271 40 271 36.640 C 271 34.791, 271.286 31.191, 271.636 28.640 L 272.272 24 245.886 23.998 L 219.500 23.996 219.815 35.139 M 227 70.036 C 214.256 70.996, 201.623 73.153, 189.178 76.496 C 184.051 77.873, 179.629 79, 179.351 79 C 179.073 79, 180.253 80.407, 181.974 82.127 C 183.694 83.847, 185.366 86.580, 185.690 88.201 C 186.174 90.620, 186.668 91.049, 188.452 90.601 C 196.235 88.648, 221.247 84.889, 233.516 83.829 L 248.082 82.570 247.791 76.035 L 247.500 69.500 242.500 69.373 C 239.750 69.303, 232.775 69.602, 227 70.036 M 119.821 110.672 C 107.732 119.659, 90.102 137.040, 81.167 148.780 C 21.156 227.628, 25.653 337.054, 91.882 409.488 C 99.164 417.453, 111.352 428.758, 108.989 425.357 C 99.411 411.570, 94.616 403.907, 90.305 395.500 C 58.988 334.432, 58.125 263.597, 87.954 202.500 C 98.052 181.818, 107.290 168.249, 122.934 151.122 C 128.813 144.685, 133.582 138.097, 138.138 130.122 L 144.776 118.500 138.888 118.202 C 135.649 118.039, 133 117.570, 133 117.160 C 133 115.721, 141.551 108.101, 146 105.577 L 150.500 103.024 140.321 103.012 L 130.143 103 119.821 110.672" stroke="none" fill="black" fill-rule="evenodd"/>
</svg>